<?xml version="1.0" encoding="UTF-8" standalone="no"?>
<svg
   width="235"
   height="110"
   id="svg2"
   version="1.1"
   inkscape:version="1.1 (1:1.1+202105261517+ce6663b3b7)"
   sodipodi:docname="zero-lliurex-photo.svg"
   xmlns:inkscape="http://www.inkscape.org/namespaces/inkscape"
   xmlns:sodipodi="http://sodipodi.sourceforge.net/DTD/sodipodi-0.dtd"
   xmlns:xlink="http://www.w3.org/1999/xlink"
   xmlns="http://www.w3.org/2000/svg"
   xmlns:svg="http://www.w3.org/2000/svg"
   xmlns:rdf="http://www.w3.org/1999/02/22-rdf-syntax-ns#"
   xmlns:cc="http://creativecommons.org/ns#"
   xmlns:dc="http://purl.org/dc/elements/1.1/">
  <defs
     id="defs4">
    <linearGradient
       inkscape:collect="always"
       id="linearGradient4238">
      <stop
         style="stop-color:#36005f;stop-opacity:1;"
         offset="0"
         id="stop4240" />
      <stop
         style="stop-color:#36005f;stop-opacity:0;"
         offset="1"
         id="stop4242" />
    </linearGradient>
    <radialGradient
       inkscape:collect="always"
       xlink:href="#linearGradient4238"
       id="radialGradient4244"
       cx="73.254005"
       cy="989.40417"
       fx="73.254005"
       fy="989.40417"
       r="65.339745"
       gradientTransform="matrix(1,0,0,0.37731528,0,616.08686)"
       gradientUnits="userSpaceOnUse" />
    <linearGradient
       y2="833.85461"
       x2="230.01286"
       y1="768.0376"
       x1="296.1369"
       gradientTransform="matrix(0.93939733,0,0,1.2111787,0,298.66667)"
       gradientUnits="userSpaceOnUse"
       id="G0">
      <stop
         id="stop4611"
         style="stop-color:#4dad2c" />
      <stop
         id="stop4613"
         style="stop-color:#e3ff86"
         offset="1" />
    </linearGradient>
    <linearGradient
       y2="408.78055"
       x2="504.90137"
       y1="408.78055"
       x1="433.22763"
       gradientTransform="matrix(0.448461,0,0,2.229848,0,280)"
       gradientUnits="userSpaceOnUse"
       id="G1">
      <stop
         id="stop4616"
         style="stop-color:#fff" />
      <stop
         id="stop4618"
         style="stop-color:#fff;stop-opacity:0"
         offset="1" />
    </linearGradient>
    <linearGradient
       y2="1719.0306"
       x2="116.15244"
       y1="1726.7207"
       x1="121.73791"
       gradientTransform="matrix(1.958518,0,0,0.51059,0,280)"
       gradientUnits="userSpaceOnUse"
       id="G2">
      <stop
         id="stop4621"
         style="stop-color:#d9d9b4" />
      <stop
         id="stop4623"
         style="stop-color:#a3a36b"
         offset="1" />
    </linearGradient>
    <linearGradient
       y2="1051.3652"
       x2="243.66159"
       y1="998.6955"
       x1="241.40817"
       gradientTransform="matrix(0.991342,0,0,1.008734,0,140)"
       xlink:href="#G1"
       id="G3" />
    <linearGradient
       y2="776.55743"
       x2="286.71185"
       y1="794.37476"
       x1="277.49091"
       gradientTransform="matrix(0.747426,0,0,1.337925,0.25,132)"
       xlink:href="#G3"
       id="G4">
      <stop
         id="stop4627"
         style="stop-color:#ff0b00" />
      <stop
         id="stop4629"
         style="stop-color:#810500"
         offset="1" />
    </linearGradient>
    <linearGradient
       y2="885.64746"
       x2="252.10155"
       y1="868.11609"
       x1="250.28658"
       gradientTransform="matrix(0.88966187,0,0,1.2788885,0,140.8)"
       xlink:href="#G1"
       id="G5" />
    <linearGradient
       y2="1976.4353"
       x2="115.16805"
       y1="1985.5347"
       x1="126.13629"
       gradientTransform="matrix(1.937868,0,0,0.516031,0,140)"
       xlink:href="#G1"
       id="G6" />
    <radialGradient
       r="44.525272"
       fy="1794.8795"
       fx="169.88104"
       cy="1794.8795"
       cx="169.88104"
       gradientTransform="scale(1.459845,0.685004)"
       gradientUnits="userSpaceOnUse"
       id="G7">
      <stop
         id="stop4634"
         style="stop-color:#000;stop-opacity:.39215687" />
      <stop
         id="stop4636"
         style="stop-color:#000;stop-opacity:0"
         offset="1" />
    </radialGradient>
    <linearGradient
       y2="1082.9424"
       x2="211.85287"
       y1="1137.6046"
       x1="205.99301"
       gradientTransform="matrix(1.2543595,0,0,0.9070592,0,298.66667)"
       gradientUnits="userSpaceOnUse"
       spreadMethod="reflect"
       id="G9">
      <stop
         id="stop4639"
         style="stop-color:#b6e8ff" />
      <stop
         id="stop4641"
         style="stop-color:#2389db"
         offset="1" />
    </linearGradient>
    <linearGradient
       y2="1448.4674"
       x2="189.13556"
       y1="1448.4674"
       x1="131.91928"
       gradientTransform="matrix(1.514725,0,0,0.660186,0,280)"
       xlink:href="#G2"
       id="G10" />
    <linearGradient
       y2="1776.3087"
       x2="164.79172"
       y1="1700.754"
       x1="143.15617"
       gradientTransform="matrix(1.7227083,0,0,0.66045867,0,149.33333)"
       xlink:href="#G1"
       id="G11" />
    <linearGradient
       y2="1444.9415"
       x2="191.07132"
       y1="1478.1887"
       x1="191.07132"
       gradientTransform="matrix(1.4530443,0,0,0.7830304,0,149.33333)"
       xlink:href="#G4"
       id="G12" />
    <linearGradient
       y2="1634.5474"
       x2="157.33363"
       y1="1696.1609"
       x1="140.25737"
       gradientTransform="matrix(1.514725,0,0,0.660186,0,140)"
       xlink:href="#G2"
       id="G13" />
    <linearGradient
       y2="1666.985"
       x2="167.51932"
       y1="1674.547"
       x1="175.50798"
       gradientTransform="matrix(1.514725,0,0,0.660186,0,140)"
       spreadMethod="pad"
       xlink:href="#G1"
       id="G14" />
    <linearGradient
       y2="1669.3435"
       x2="147.68718"
       y1="1674.4733"
       x1="140.18318"
       gradientTransform="matrix(1.6157067,0,0,0.7041984,0,149.33333)"
       xlink:href="#G1"
       id="G15" />
    <linearGradient
       y2="985.21222"
       x2="227.17216"
       y1="1010.1295"
       x1="222.24202"
       gradientTransform="matrix(0.9677664,0,0,1.1756747,0,149.33333)"
       xlink:href="#G4"
       id="G16" />
    <linearGradient
       y2="1068.4087"
       x2="212.00743"
       y1="1048.0908"
       x1="211.96373"
       gradientTransform="matrix(1.0294891,0,0,1.1051872,0,149.33333)"
       xlink:href="#G1"
       id="G17" />
    <linearGradient
       y2="1493.8745"
       x2="182.96735"
       y1="1437.2679"
       x1="196.64761"
       gradientTransform="matrix(1.4530443,0,0,0.7830304,0,149.33333)"
       xlink:href="#G1"
       id="G18" />
    <linearGradient
       id="SVGID_1_"
       gradientUnits="userSpaceOnUse"
       x1="30.2495"
       y1="49"
       x2="30.2495"
       y2="12.8745"
       gradientTransform="scale(1.0666667)">
      <stop
         offset="0"
         style="stop-color:#000000"
         id="stop5847" />
      <stop
         offset="1"
         style="stop-color:#3B3B3B"
         id="stop5849" />
    </linearGradient>
    <linearGradient
       id="SVGID_2_"
       gradientUnits="userSpaceOnUse"
       x1="59.722198"
       y1="20.466801"
       x2="59.722198"
       y2="12.583"
       gradientTransform="scale(1.0666667)">
      <stop
         offset="0"
         style="stop-color:#000000"
         id="stop5854" />
      <stop
         offset="1"
         style="stop-color:#3B3B3B"
         id="stop5856" />
    </linearGradient>
    <linearGradient
       id="SVGID_2_-8"
       gradientUnits="userSpaceOnUse"
       x1="10.0947"
       y1="29"
       x2="57"
       y2="29">
      <stop
         offset="0"
         style="stop-color:#535353"
         id="stop82904" />
      <stop
         offset="0.2675"
         style="stop-color:#595959"
         id="stop82906" />
      <stop
         offset="0.5963"
         style="stop-color:#686868"
         id="stop82908" />
      <stop
         offset="0.9559"
         style="stop-color:#808080"
         id="stop82910" />
      <stop
         offset="1"
         style="stop-color:#848484"
         id="stop82912" />
    </linearGradient>
    <linearGradient
       id="SVGID_3_"
       gradientUnits="userSpaceOnUse"
       x1="13.5"
       y1="29.5"
       x2="56.5"
       y2="29.5">
      <stop
         offset="0"
         style="stop-color:#D1D1D1"
         id="stop82919" />
      <stop
         offset="0.0079"
         style="stop-color:#D2D2D2"
         id="stop82921" />
      <stop
         offset="0.303"
         style="stop-color:#EBEBEB"
         id="stop82923" />
      <stop
         offset="0.5728"
         style="stop-color:#FAFAFA"
         id="stop82925" />
      <stop
         offset="0.7923"
         style="stop-color:#FFFFFF"
         id="stop82927" />
      <stop
         offset="0.8536"
         style="stop-color:#FBFBFB"
         id="stop82929" />
      <stop
         offset="0.913"
         style="stop-color:#EFEFEF"
         id="stop82931" />
      <stop
         offset="0.9714"
         style="stop-color:#DCDCDC"
         id="stop82933" />
      <stop
         offset="1"
         style="stop-color:#D0D0D0"
         id="stop82935" />
    </linearGradient>
    <linearGradient
       id="SVGID_4_"
       gradientUnits="userSpaceOnUse"
       x1="13"
       y1="29.5"
       x2="57"
       y2="29.5">
      <stop
         offset="0"
         style="stop-color:#E5E2DF"
         id="stop82938" />
      <stop
         offset="0"
         style="stop-color:#DED9D6"
         id="stop82940" />
      <stop
         offset="0.063"
         style="stop-color:#CFCAC9"
         id="stop82942" />
      <stop
         offset="0.1833"
         style="stop-color:#A8A4A7"
         id="stop82944" />
      <stop
         offset="0.264"
         style="stop-color:#8B878D"
         id="stop82946" />
      <stop
         offset="0.5225"
         style="stop-color:#F3F4F4"
         id="stop82948" />
      <stop
         offset="0.5842"
         style="stop-color:#E5E5E6"
         id="stop82950" />
      <stop
         offset="0.7027"
         style="stop-color:#C0BEC0"
         id="stop82952" />
      <stop
         offset="0.8647"
         style="stop-color:#858085"
         id="stop82954" />
      <stop
         offset="0.8764"
         style="stop-color:#807B80"
         id="stop82956" />
      <stop
         offset="1"
         style="stop-color:#D1D3D4"
         id="stop82958" />
      <stop
         offset="1"
         style="stop-color:#A7A9AC"
         id="stop82960" />
    </linearGradient>
    <linearGradient
       id="SVGID_5_"
       gradientUnits="userSpaceOnUse"
       x1="13.5"
       y1="30"
       x2="55.5"
       y2="30">
      <stop
         offset="0"
         style="stop-color:#D1D1D1"
         id="stop82965" />
      <stop
         offset="0.0079"
         style="stop-color:#D2D2D2"
         id="stop82967" />
      <stop
         offset="0.303"
         style="stop-color:#EBEBEB"
         id="stop82969" />
      <stop
         offset="0.5728"
         style="stop-color:#FAFAFA"
         id="stop82971" />
      <stop
         offset="0.7923"
         style="stop-color:#FFFFFF"
         id="stop82973" />
      <stop
         offset="0.8536"
         style="stop-color:#FBFBFB"
         id="stop82975" />
      <stop
         offset="0.913"
         style="stop-color:#EFEFEF"
         id="stop82977" />
      <stop
         offset="0.9714"
         style="stop-color:#DCDCDC"
         id="stop82979" />
      <stop
         offset="1"
         style="stop-color:#D0D0D0"
         id="stop82981" />
    </linearGradient>
    <linearGradient
       id="SVGID_6_"
       gradientUnits="userSpaceOnUse"
       x1="13"
       y1="30"
       x2="56"
       y2="30">
      <stop
         offset="0"
         style="stop-color:#E5E2DF"
         id="stop82984" />
      <stop
         offset="0"
         style="stop-color:#DED9D6"
         id="stop82986" />
      <stop
         offset="0.063"
         style="stop-color:#CFCAC9"
         id="stop82988" />
      <stop
         offset="0.1833"
         style="stop-color:#A8A4A7"
         id="stop82990" />
      <stop
         offset="0.264"
         style="stop-color:#8B878D"
         id="stop82992" />
      <stop
         offset="0.5225"
         style="stop-color:#F3F4F4"
         id="stop82994" />
      <stop
         offset="0.5842"
         style="stop-color:#E5E5E6"
         id="stop82996" />
      <stop
         offset="0.7027"
         style="stop-color:#C0BEC0"
         id="stop82998" />
      <stop
         offset="0.8647"
         style="stop-color:#858085"
         id="stop83000" />
      <stop
         offset="0.8764"
         style="stop-color:#807B80"
         id="stop83002" />
      <stop
         offset="1"
         style="stop-color:#D1D3D4"
         id="stop83004" />
      <stop
         offset="1"
         style="stop-color:#A7A9AC"
         id="stop83006" />
    </linearGradient>
    <linearGradient
       id="SVGID_7_"
       gradientUnits="userSpaceOnUse"
       x1="12.5"
       y1="31"
       x2="54.5"
       y2="31">
      <stop
         offset="0"
         style="stop-color:#D1D1D1"
         id="stop83011" />
      <stop
         offset="0.0079"
         style="stop-color:#D2D2D2"
         id="stop83013" />
      <stop
         offset="0.303"
         style="stop-color:#EBEBEB"
         id="stop83015" />
      <stop
         offset="0.5728"
         style="stop-color:#FAFAFA"
         id="stop83017" />
      <stop
         offset="0.7923"
         style="stop-color:#FFFFFF"
         id="stop83019" />
      <stop
         offset="0.8536"
         style="stop-color:#FBFBFB"
         id="stop83021" />
      <stop
         offset="0.913"
         style="stop-color:#EFEFEF"
         id="stop83023" />
      <stop
         offset="0.9714"
         style="stop-color:#DCDCDC"
         id="stop83025" />
      <stop
         offset="1"
         style="stop-color:#D0D0D0"
         id="stop83027" />
    </linearGradient>
    <linearGradient
       id="SVGID_8_"
       gradientUnits="userSpaceOnUse"
       x1="12"
       y1="31"
       x2="55"
       y2="31">
      <stop
         offset="0"
         style="stop-color:#E5E2DF"
         id="stop83030" />
      <stop
         offset="0"
         style="stop-color:#DED9D6"
         id="stop83032" />
      <stop
         offset="0.063"
         style="stop-color:#CFCAC9"
         id="stop83034" />
      <stop
         offset="0.1833"
         style="stop-color:#A8A4A7"
         id="stop83036" />
      <stop
         offset="0.264"
         style="stop-color:#8B878D"
         id="stop83038" />
      <stop
         offset="0.5225"
         style="stop-color:#F3F4F4"
         id="stop83040" />
      <stop
         offset="0.5842"
         style="stop-color:#E5E5E6"
         id="stop83042" />
      <stop
         offset="0.7027"
         style="stop-color:#C0BEC0"
         id="stop83044" />
      <stop
         offset="0.8647"
         style="stop-color:#858085"
         id="stop83046" />
      <stop
         offset="0.8764"
         style="stop-color:#807B80"
         id="stop83048" />
      <stop
         offset="1"
         style="stop-color:#D1D3D4"
         id="stop83050" />
      <stop
         offset="1"
         style="stop-color:#A7A9AC"
         id="stop83052" />
    </linearGradient>
    <linearGradient
       id="SVGID_9_"
       gradientUnits="userSpaceOnUse"
       x1="11.5"
       y1="31"
       x2="53.501499"
       y2="31">
      <stop
         offset="0"
         style="stop-color:#D1D1D1"
         id="stop83057" />
      <stop
         offset="0.0079"
         style="stop-color:#D2D2D2"
         id="stop83059" />
      <stop
         offset="0.303"
         style="stop-color:#EBEBEB"
         id="stop83061" />
      <stop
         offset="0.5728"
         style="stop-color:#FAFAFA"
         id="stop83063" />
      <stop
         offset="0.7923"
         style="stop-color:#FFFFFF"
         id="stop83065" />
      <stop
         offset="0.8536"
         style="stop-color:#FBFBFB"
         id="stop83067" />
      <stop
         offset="0.913"
         style="stop-color:#EFEFEF"
         id="stop83069" />
      <stop
         offset="0.9714"
         style="stop-color:#DCDCDC"
         id="stop83071" />
      <stop
         offset="1"
         style="stop-color:#D0D0D0"
         id="stop83073" />
    </linearGradient>
    <linearGradient
       id="SVGID_10_"
       gradientUnits="userSpaceOnUse"
       x1="11"
       y1="31"
       x2="54.001499"
       y2="31">
      <stop
         offset="0"
         style="stop-color:#E5E2DF"
         id="stop83076" />
      <stop
         offset="0"
         style="stop-color:#DED9D6"
         id="stop83078" />
      <stop
         offset="0.063"
         style="stop-color:#CFCAC9"
         id="stop83080" />
      <stop
         offset="0.1833"
         style="stop-color:#A8A4A7"
         id="stop83082" />
      <stop
         offset="0.264"
         style="stop-color:#8B878D"
         id="stop83084" />
      <stop
         offset="0.5225"
         style="stop-color:#F3F4F4"
         id="stop83086" />
      <stop
         offset="0.5842"
         style="stop-color:#E5E5E6"
         id="stop83088" />
      <stop
         offset="0.7027"
         style="stop-color:#C0BEC0"
         id="stop83090" />
      <stop
         offset="0.8647"
         style="stop-color:#858085"
         id="stop83092" />
      <stop
         offset="0.8764"
         style="stop-color:#807B80"
         id="stop83094" />
      <stop
         offset="1"
         style="stop-color:#D1D3D4"
         id="stop83096" />
      <stop
         offset="1"
         style="stop-color:#A7A9AC"
         id="stop83098" />
    </linearGradient>
    <linearGradient
       id="SVGID_11_"
       gradientUnits="userSpaceOnUse"
       x1="11.5"
       y1="32"
       x2="53.5"
       y2="32">
      <stop
         offset="0"
         style="stop-color:#D1D1D1"
         id="stop83103" />
      <stop
         offset="0.0079"
         style="stop-color:#D2D2D2"
         id="stop83105" />
      <stop
         offset="0.303"
         style="stop-color:#EBEBEB"
         id="stop83107" />
      <stop
         offset="0.5728"
         style="stop-color:#FAFAFA"
         id="stop83109" />
      <stop
         offset="0.7923"
         style="stop-color:#FFFFFF"
         id="stop83111" />
      <stop
         offset="0.8536"
         style="stop-color:#FBFBFB"
         id="stop83113" />
      <stop
         offset="0.913"
         style="stop-color:#EFEFEF"
         id="stop83115" />
      <stop
         offset="0.9714"
         style="stop-color:#DCDCDC"
         id="stop83117" />
      <stop
         offset="1"
         style="stop-color:#D0D0D0"
         id="stop83119" />
    </linearGradient>
    <linearGradient
       id="SVGID_12_"
       gradientUnits="userSpaceOnUse"
       x1="11"
       y1="32"
       x2="54"
       y2="32">
      <stop
         offset="0"
         style="stop-color:#E5E2DF"
         id="stop83122" />
      <stop
         offset="0"
         style="stop-color:#DED9D6"
         id="stop83124" />
      <stop
         offset="0.063"
         style="stop-color:#CFCAC9"
         id="stop83126" />
      <stop
         offset="0.1833"
         style="stop-color:#A8A4A7"
         id="stop83128" />
      <stop
         offset="0.264"
         style="stop-color:#8B878D"
         id="stop83130" />
      <stop
         offset="0.5225"
         style="stop-color:#F3F4F4"
         id="stop83132" />
      <stop
         offset="0.5842"
         style="stop-color:#E5E5E6"
         id="stop83134" />
      <stop
         offset="0.7027"
         style="stop-color:#C0BEC0"
         id="stop83136" />
      <stop
         offset="0.8647"
         style="stop-color:#858085"
         id="stop83138" />
      <stop
         offset="0.8764"
         style="stop-color:#807B80"
         id="stop83140" />
      <stop
         offset="1"
         style="stop-color:#D1D3D4"
         id="stop83142" />
      <stop
         offset="1"
         style="stop-color:#A7A9AC"
         id="stop83144" />
    </linearGradient>
    <linearGradient
       id="SVGID_13_"
       gradientUnits="userSpaceOnUse"
       x1="10.5"
       y1="32.5"
       x2="53.5"
       y2="32.5">
      <stop
         offset="0"
         style="stop-color:#D1D1D1"
         id="stop83149" />
      <stop
         offset="0.0079"
         style="stop-color:#D2D2D2"
         id="stop83151" />
      <stop
         offset="0.303"
         style="stop-color:#EBEBEB"
         id="stop83153" />
      <stop
         offset="0.5728"
         style="stop-color:#FAFAFA"
         id="stop83155" />
      <stop
         offset="0.7923"
         style="stop-color:#FFFFFF"
         id="stop83157" />
      <stop
         offset="0.8536"
         style="stop-color:#FBFBFB"
         id="stop83159" />
      <stop
         offset="0.913"
         style="stop-color:#EFEFEF"
         id="stop83161" />
      <stop
         offset="0.9714"
         style="stop-color:#DCDCDC"
         id="stop83163" />
      <stop
         offset="1"
         style="stop-color:#D0D0D0"
         id="stop83165" />
    </linearGradient>
    <linearGradient
       id="SVGID_14_"
       gradientUnits="userSpaceOnUse"
       x1="10"
       y1="32.5"
       x2="54"
       y2="32.5">
      <stop
         offset="0"
         style="stop-color:#E5E2DF"
         id="stop83168" />
      <stop
         offset="0"
         style="stop-color:#DED9D6"
         id="stop83170" />
      <stop
         offset="0.063"
         style="stop-color:#CFCAC9"
         id="stop83172" />
      <stop
         offset="0.1833"
         style="stop-color:#A8A4A7"
         id="stop83174" />
      <stop
         offset="0.264"
         style="stop-color:#8B878D"
         id="stop83176" />
      <stop
         offset="0.5225"
         style="stop-color:#F3F4F4"
         id="stop83178" />
      <stop
         offset="0.5842"
         style="stop-color:#E5E5E6"
         id="stop83180" />
      <stop
         offset="0.7027"
         style="stop-color:#C0BEC0"
         id="stop83182" />
      <stop
         offset="0.8647"
         style="stop-color:#858085"
         id="stop83184" />
      <stop
         offset="0.8764"
         style="stop-color:#807B80"
         id="stop83186" />
      <stop
         offset="1"
         style="stop-color:#D1D3D4"
         id="stop83188" />
      <stop
         offset="1"
         style="stop-color:#A7A9AC"
         id="stop83190" />
    </linearGradient>
    <linearGradient
       id="SVGID_15_"
       gradientUnits="userSpaceOnUse"
       x1="9"
       y1="33"
       x2="53"
       y2="33">
      <stop
         offset="0"
         style="stop-color:#D1D1D1"
         id="stop83195" />
      <stop
         offset="0.0079"
         style="stop-color:#D2D2D2"
         id="stop83197" />
      <stop
         offset="0.303"
         style="stop-color:#EBEBEB"
         id="stop83199" />
      <stop
         offset="0.5728"
         style="stop-color:#FAFAFA"
         id="stop83201" />
      <stop
         offset="0.7923"
         style="stop-color:#FFFFFF"
         id="stop83203" />
      <stop
         offset="0.8536"
         style="stop-color:#FBFBFB"
         id="stop83205" />
      <stop
         offset="0.913"
         style="stop-color:#EFEFEF"
         id="stop83207" />
      <stop
         offset="0.9714"
         style="stop-color:#DCDCDC"
         id="stop83209" />
      <stop
         offset="1"
         style="stop-color:#D0D0D0"
         id="stop83211" />
    </linearGradient>
    <linearGradient
       id="SVGID_16_"
       gradientUnits="userSpaceOnUse"
       x1="31"
       y1="59"
       x2="31"
       y2="7">
      <stop
         offset="0"
         style="stop-color:#545454"
         id="stop83216" />
      <stop
         offset="0.003"
         style="stop-color:#575757"
         id="stop83218" />
      <stop
         offset="0.037"
         style="stop-color:#707070"
         id="stop83220" />
      <stop
         offset="0.0681"
         style="stop-color:#7F7F7F"
         id="stop83222" />
      <stop
         offset="0.0934"
         style="stop-color:#848484"
         id="stop83224" />
      <stop
         offset="0.4195"
         style="stop-color:#6C6C6C"
         id="stop83226" />
      <stop
         offset="0.758"
         style="stop-color:#5A5A5A"
         id="stop83228" />
      <stop
         offset="1"
         style="stop-color:#535353"
         id="stop83230" />
    </linearGradient>
    <linearGradient
       id="SVGID_17_"
       gradientUnits="userSpaceOnUse"
       x1="11"
       y1="33"
       x2="52"
       y2="33">
      <stop
         offset="0"
         style="stop-color:#B6B6B6"
         id="stop83351" />
      <stop
         offset="0.0286"
         style="stop-color:#C3C3C3"
         id="stop83353" />
      <stop
         offset="0.087"
         style="stop-color:#D6D6D6"
         id="stop83355" />
      <stop
         offset="0.1464"
         style="stop-color:#E2E2E2"
         id="stop83357" />
      <stop
         offset="0.2077"
         style="stop-color:#E6E6E6"
         id="stop83359" />
      <stop
         offset="0.4272"
         style="stop-color:#E0E0E0"
         id="stop83361" />
      <stop
         offset="0.697"
         style="stop-color:#D1D1D1"
         id="stop83363" />
      <stop
         offset="0.9921"
         style="stop-color:#B8B8B8"
         id="stop83365" />
      <stop
         offset="1"
         style="stop-color:#B8B8B8"
         id="stop83367" />
    </linearGradient>
    <linearGradient
       id="SVGID_18_"
       gradientUnits="userSpaceOnUse"
       x1="3.7695"
       y1="-555.69427"
       x2="26.5079"
       y2="-573.45947"
       gradientTransform="matrix(1,0,0,-1,0,-542)">
      <stop
         offset="0"
         style="stop-color:#FFFFFF"
         id="stop83374" />
      <stop
         offset="1"
         style="stop-color:#FFFFFF;stop-opacity:0"
         id="stop83376" />
    </linearGradient>
    <linearGradient
       id="SVGID_19_"
       gradientUnits="userSpaceOnUse"
       x1="3.5058999"
       y1="47.515598"
       x2="59.568401"
       y2="47.515598">
      <stop
         offset="0"
         style="stop-color:#040404"
         id="stop83381" />
      <stop
         offset="0.125"
         style="stop-color:#0A0A0A"
         id="stop83383" />
      <stop
         offset="0.25"
         style="stop-color:#131313"
         id="stop83385" />
      <stop
         offset="0.375"
         style="stop-color:#1F1F1F"
         id="stop83387" />
      <stop
         offset="0.5"
         style="stop-color:#414141"
         id="stop83389" />
      <stop
         offset="0.635"
         style="stop-color:#1F1F1F"
         id="stop83391" />
      <stop
         offset="0.75"
         style="stop-color:#131313"
         id="stop83393" />
      <stop
         offset="0.875"
         style="stop-color:#0A0A0A"
         id="stop83395" />
      <stop
         offset="1"
         style="stop-color:#040404"
         id="stop83397" />
    </linearGradient>
    <linearGradient
       id="SVGID_20_"
       gradientUnits="userSpaceOnUse"
       x1="11"
       y1="47.515598"
       x2="52"
       y2="47.515598">
      <stop
         offset="0"
         style="stop-color:#BEBEBE"
         id="stop83400" />
      <stop
         offset="0.0372"
         style="stop-color:#CBCBCB"
         id="stop83402" />
      <stop
         offset="0.1206"
         style="stop-color:#E3E3E3"
         id="stop83404" />
      <stop
         offset="0.1973"
         style="stop-color:#F2F2F2"
         id="stop83406" />
      <stop
         offset="0.2606"
         style="stop-color:#F7F7F7"
         id="stop83408" />
      <stop
         offset="0.8303"
         style="stop-color:#F6F6F6"
         id="stop83410" />
      <stop
         offset="1"
         style="stop-color:#BFBFBF"
         id="stop83412" />
    </linearGradient>
    <linearGradient
       y2="1495.5353"
       x2="302.40109"
       y1="1199.5353"
       x1="1174.4011"
       gradientUnits="userSpaceOnUse"
       id="SVGID_1_-3">
      <stop
         id="stop4183"
         style="stop-color:#8FD9FF"
         offset="0" />
      <stop
         id="stop4185"
         style="stop-color:#005A97"
         offset="1" />
    </linearGradient>
    <linearGradient
       y2="167.58321"
       x2="1354.4402"
       y1="445.86731"
       x1="482.46069"
       gradientUnits="userSpaceOnUse"
       id="SVGID_2_-6">
      <stop
         id="stop4190"
         style="stop-color:#FFF33B"
         offset="0" />
      <stop
         id="stop4192"
         style="stop-color:#E93E3A"
         offset="1" />
    </linearGradient>
    <linearGradient
       y2="947.80048"
       x2="1672.2721"
       y1="339.82919"
       x1="980.23291"
       gradientUnits="userSpaceOnUse"
       id="SVGID_3_-7">
      <stop
         id="stop4197"
         style="stop-color:#8CC63F"
         offset="0" />
      <stop
         id="stop4199"
         style="stop-color:#90C03D"
         offset="0.1085" />
      <stop
         id="stop4201"
         style="stop-color:#9AAE38"
         offset="0.2559" />
      <stop
         id="stop4203"
         style="stop-color:#AA922E"
         offset="0.4256" />
      <stop
         id="stop4205"
         style="stop-color:#C16A22"
         offset="0.612" />
      <stop
         id="stop4207"
         style="stop-color:#DF3812"
         offset="0.8095" />
      <stop
         id="stop4209"
         style="stop-color:#FF0000"
         offset="1" />
    </linearGradient>
    <linearGradient
       y2="1614.0498"
       x2="1162.2429"
       y1="706.04993"
       x1="1322.2429"
       gradientUnits="userSpaceOnUse"
       id="SVGID_4_-5">
      <stop
         id="stop4214"
         style="stop-color:#FF49C1"
         offset="0" />
      <stop
         id="stop4216"
         style="stop-color:#F947C2"
         offset="0.0965" />
      <stop
         id="stop4218"
         style="stop-color:#E943C6"
         offset="0.2206" />
      <stop
         id="stop4220"
         style="stop-color:#CF3BCD"
         offset="0.36" />
      <stop
         id="stop4222"
         style="stop-color:#AA31D6"
         offset="0.5105" />
      <stop
         id="stop4224"
         style="stop-color:#7A23E1"
         offset="0.6699" />
      <stop
         id="stop4226"
         style="stop-color:#4113EF"
         offset="0.835" />
      <stop
         id="stop4228"
         style="stop-color:#0000FF"
         offset="1" />
    </linearGradient>
    <linearGradient
       y2="654.13232"
       x2="15.1366"
       y1="1300.1323"
       x1="649.13647"
       gradientUnits="userSpaceOnUse"
       id="SVGID_5_-3">
      <stop
         id="stop4233"
         style="stop-color:#C3D7FF"
         offset="0" />
      <stop
         id="stop4235"
         style="stop-color:#00CBA5"
         offset="1" />
    </linearGradient>
    <linearGradient
       y2="33.954498"
       x2="467.6806"
       y1="961.95453"
       x1="327.6806"
       gradientUnits="userSpaceOnUse"
       id="SVGID_6_-5">
      <stop
         id="stop4240-6"
         style="stop-color:#EDE928"
         offset="0" />
      <stop
         id="stop4242-2"
         style="stop-color:#F37E31"
         offset="1" />
    </linearGradient>
    <linearGradient
       inkscape:collect="always"
       xlink:href="#SVGID_14_"
       id="linearGradient50325"
       x1="5.8221703"
       y1="1063.5197"
       x2="106.39977"
       y2="1063.5197"
       gradientUnits="userSpaceOnUse" />
  </defs>
  <sodipodi:namedview
     id="base"
     pagecolor="#ffffff"
     bordercolor="#666666"
     borderopacity="1.0"
     inkscape:pageopacity="0.0"
     inkscape:pageshadow="2"
     inkscape:zoom="2"
     inkscape:cx="167.5"
     inkscape:cy="24"
     inkscape:document-units="px"
     inkscape:current-layer="layer1"
     showgrid="false"
     inkscape:showpageshadow="false"
     inkscape:window-width="1920"
     inkscape:window-height="879"
     inkscape:window-x="0"
     inkscape:window-y="0"
     inkscape:window-maximized="1"
     showguides="true"
     inkscape:guide-bbox="true"
     inkscape:snap-global="false"
     borderlayer="true"
     inkscape:object-paths="true"
     inkscape:snap-intersection-paths="true"
     inkscape:snap-smooth-nodes="true"
     inkscape:snap-midpoints="true"
     inkscape:document-rotation="0"
     inkscape:pagecheckerboard="0">
    <sodipodi:guide
       orientation="0,1"
       position="341.99999,-109"
       id="guide6194"
       inkscape:locked="false" />
    <sodipodi:guide
       position="307.99999,181"
       orientation="0,1"
       id="guide5195"
       inkscape:locked="false" />
  </sodipodi:namedview>
  <metadata
     id="metadata7">
    <rdf:RDF>
      <cc:Work
         rdf:about="">
        <dc:format>image/svg+xml</dc:format>
        <dc:type
           rdf:resource="http://purl.org/dc/dcmitype/StillImage" />
      </cc:Work>
    </rdf:RDF>
  </metadata>
  <g
     inkscape:label="Capa 1"
     inkscape:groupmode="layer"
     id="layer1"
     transform="translate(0,-1012.5196)">
    <rect
       style="fill:#ffffff"
       id="rect2047"
       width="300.99152"
       height="166.49556"
       x="-32.995758"
       y="984.27185" />
    <g
       id="g4744"
       transform="translate(-1529.6478,-422.85633)" />
    <g
       transform="matrix(3.2309237,0,0,2.4215357,274.63504,978.64051)"
       id="g5313" />
    <g
       id="g5820"
       transform="matrix(2.6232954,0,0,2.6232954,289.24382,978.95903)" />
    <g
       transform="matrix(2.5603596,0,0,2.5603596,313.92177,967.33149)"
       id="g3809" />
    <g
       id="g39320"
       style="opacity:0.75">
      <g
         id="g4180"
         transform="matrix(0.15624997,0,0,0.15624997,-11.390874,938.62877)">
        <linearGradient
           y2="1495.5353"
           x2="302.40109"
           y1="1199.5353"
           x1="1174.4011"
           gradientUnits="userSpaceOnUse"
           id="linearGradient1637">
          <stop
             id="stop1633"
             style="stop-color:#8FD9FF"
             offset="0" />
          <stop
             id="stop1635"
             style="stop-color:#005A97"
             offset="1" />
        </linearGradient>
        <path
           id="path4187"
           d="m 1129.3434,1185.5632 c 12.699,-133.3132 10.5593,-258.618 8.2264,-320.4229 l -143.7966,249.063 0.2117,0.3142 c -0.0488,0.033 -0.2675,0.1794 -0.64,0.4279 l -0.493,0.8541 h -0.7924 c -17.7061,11.7334 -154.6073,101.3115 -316.7206,175.4233 -101.9248,46.5959 -193.8532,78.1162 -273.2319,93.6855 -51.2694,10.0562 -97.4708,13.4342 -138.3306,10.1848 144.3976,142.1157 342.5172,229.8083 561.1252,229.8083 60.0491,0 118.5476,-6.6301 174.8169,-19.1731 29.5822,-34.9309 54.8085,-82.5996 75.3447,-142.5306 25.5804,-74.6484 43.8428,-168.0581 54.2802,-277.6345 z"
           style="fill:url(#SVGID_1_-3)" />
        <linearGradient
           y2="167.58321"
           x2="1354.4402"
           y1="445.86731"
           x1="482.46069"
           gradientUnits="userSpaceOnUse"
           id="linearGradient1644">
          <stop
             id="stop1640"
             style="stop-color:#FFF33B"
             offset="0" />
          <stop
             id="stop1642"
             style="stop-color:#E93E3A"
             offset="1" />
        </linearGradient>
        <path
           id="path4194"
           d="m 656.9514,534.0035 h 0.7925 c 17.7064,-11.7336 154.6073,-101.3115 316.7205,-175.4234 101.9248,-46.5958 193.853,-78.1162 273.2318,-93.6854 51.2694,-10.0563 97.4708,-13.4343 138.3307,-10.1849 C 1241.6292,112.5942 1043.5096,24.9016 824.9016,24.9016 c -60.0491,0 -118.5476,6.6301 -174.817,19.173 -29.582,34.9311 -54.8083,82.5997 -75.3447,142.5306 -25.5801,74.6484 -43.8427,168.0583 -54.2801,277.6346 -12.699,133.3133 -10.5593,258.618 -8.2264,320.423 l 143.7965,-249.063 -0.2115,-0.3142 c 0.0487,-0.0328 0.2673,-0.1794 0.6399,-0.4278 z"
           style="fill:url(#SVGID_2_-6)" />
        <linearGradient
           y2="947.80048"
           x2="1672.2721"
           y1="339.82919"
           x1="980.23291"
           gradientUnits="userSpaceOnUse"
           id="linearGradient1661">
          <stop
             id="stop1647"
             style="stop-color:#8CC63F"
             offset="0" />
          <stop
             id="stop1649"
             style="stop-color:#90C03D"
             offset="0.1085" />
          <stop
             id="stop1651"
             style="stop-color:#9AAE38"
             offset="0.2559" />
          <stop
             id="stop1653"
             style="stop-color:#AA922E"
             offset="0.4256" />
          <stop
             id="stop1655"
             style="stop-color:#C16A22"
             offset="0.612" />
          <stop
             id="stop1657"
             style="stop-color:#DF3812"
             offset="0.8095" />
          <stop
             id="stop1659"
             style="stop-color:#FF0000"
             offset="1" />
        </linearGradient>
        <path
           id="path4211"
           d="m 1252.6016,289.107 c -77.4375,15.1711 -167.4641,46.0602 -267.5786,91.8093 -121.8022,55.659 -229.2493,120.1644 -281.6075,153.0872 h 287.593 l 0.1664,-0.3403 c 0.0529,0.0258 0.2892,0.1418 0.6906,0.3403 h 0.9865 l 0.396,0.6862 c 19.0148,9.4673 165.042,83.2381 310.2813,186.5763 91.3157,64.9715 164.5774,128.8236 217.75,189.783 34.4314,39.4731 60.5011,77.8907 78.1187,114.9888 16.6426,-64.2667 25.5039,-131.6661 25.5039,-201.1362 0,-209.0386 -80.1853,-399.3416 -211.4622,-541.8556 -44.9883,-8.097 -98.7913,-6.0954 -160.8381,6.061 z"
           style="fill:url(#SVGID_3_-7)" />
        <linearGradient
           y2="1614.0498"
           x2="1162.2429"
           y1="706.04993"
           x1="1322.2429"
           gradientUnits="userSpaceOnUse"
           id="linearGradient1680">
          <stop
             id="stop1664"
             style="stop-color:#FF49C1"
             offset="0" />
          <stop
             id="stop1666"
             style="stop-color:#F947C2"
             offset="0.0965" />
          <stop
             id="stop1668"
             style="stop-color:#E943C6"
             offset="0.2206" />
          <stop
             id="stop1670"
             style="stop-color:#CF3BCD"
             offset="0.36" />
          <stop
             id="stop1672"
             style="stop-color:#AA31D6"
             offset="0.5105" />
          <stop
             id="stop1674"
             style="stop-color:#7A23E1"
             offset="0.6699" />
          <stop
             id="stop1676"
             style="stop-color:#4113EF"
             offset="0.835" />
          <stop
             id="stop1678"
             style="stop-color:#0000FF"
             offset="1" />
        </linearGradient>
        <path
           id="path4230"
           d="M 1502.7632,927.4033 C 1450.9059,867.926 1379.1419,805.4053 1289.4646,741.578 1180.3616,663.9237 1070.7747,603.1244 1016.0835,574.2423 l 143.7966,249.063 0.3779,-0.0261 c 0,0.0587 0.022,0.3212 0.051,0.7682 l 0.493,0.8542 -0.3961,0.6861 c 1.3085,21.2008 10.4347,184.5495 -6.4392,361.9997 -10.6091,111.5674 -29.2759,206.9398 -55.4819,283.4685 -16.969,49.5552 -37.2048,91.3409 -60.5239,125.1475 261.8225,-72.1638 469.8518,-274.058 550.5939,-532.208 -15.4537,-43.1067 -44.1329,-88.8135 -85.7911,-136.5921 z"
           style="fill:url(#SVGID_4_-5)" />
        <linearGradient
           y2="654.13232"
           x2="15.1366"
           y1="1300.1323"
           x1="649.13647"
           gradientUnits="userSpaceOnUse"
           id="linearGradient1687">
          <stop
             id="stop1683"
             style="stop-color:#C3D7FF"
             offset="0" />
          <stop
             id="stop1685"
             style="stop-color:#00CBA5"
             offset="1" />
        </linearGradient>
        <path
           id="path4237"
           d="m 397.2016,1360.696 c 77.4375,-15.1711 167.4641,-46.0602 267.5786,-91.8092 121.8022,-55.6591 229.2494,-120.1644 281.6077,-153.0873 H 658.7948 l -0.1664,0.3403 c -0.0529,-0.026 -0.2892,-0.1418 -0.6906,-0.3403 h -0.9865 l -0.396,-0.6862 C 637.5405,1105.646 491.5133,1031.8751 346.274,928.537 254.9584,863.5655 181.6968,799.7134 128.5241,738.754 94.0926,699.281 68.0229,660.8634 50.4053,623.7652 33.7628,688.032 24.9016,755.4315 24.9016,824.9016 c 0,209.0385 80.1852,399.3416 211.4622,541.8555 44.988,8.0971 98.791,6.0954 160.8378,-6.0611 z"
           style="fill:url(#SVGID_5_-3)" />
        <linearGradient
           y2="33.954498"
           x2="467.6806"
           y1="961.95453"
           x1="327.6806"
           gradientUnits="userSpaceOnUse"
           id="linearGradient1694">
          <stop
             id="stop1690"
             style="stop-color:#EDE928"
             offset="0" />
          <stop
             id="stop1692"
             style="stop-color:#F37E31"
             offset="1" />
        </linearGradient>
        <path
           id="path4244"
           d="m 147.04,722.3998 c 51.8573,59.4772 123.6213,121.998 213.2984,185.8253 109.1033,77.6542 218.6902,138.4536 273.3813,167.3357 L 489.923,826.4979 l -0.3779,0.026 c -0.004,-0.0586 -0.0217,-0.3212 -0.0505,-0.7681 l -0.4931,-0.8542 0.3961,-0.6862 c -1.3083,-21.2006 -10.4347,-184.5494 6.4392,-361.9998 10.6092,-111.5673 29.2759,-206.9397 55.482,-283.4684 16.969,-49.5551 37.2048,-91.341 60.5239,-125.1474 -261.8225,72.1639 -469.8518,274.058 -550.5938,532.2081 15.4537,43.1067 44.1329,88.8133 85.7911,136.5919 z"
           style="fill:url(#SVGID_6_-5);opacity:1" />
      </g>
    </g>
    <path
       style="fill:url(#linearGradient50325);stroke-width:0.351;stroke:#000000;stroke-opacity:1;stroke-miterlimit:4;stroke-dasharray:none;fill-opacity:1.0"
       d="m 52.374387,1026.7257 c -4.20862,-0.01 -7.30371,0.62 -9.979308,1.9265 -1.6143,0.7879 -3.967521,1.7745 -5.228127,2.1825 -2.288654,0.7402 -4.058664,2.5674 -4.732824,4.9171 -0.309854,1.079 -0.05151,1.2929 1.94449,1.6139 3.455656,0.5525 3.590948,1.9422 0.311857,3.3946 -2.189622,0.9676 -3.646223,1.1537 -7.631233,0.9891 -4.344891,-0.1795 -4.916344,-0.091 -4.916268,0.8061 5.7e-5,0.7321 -0.932394,1.2728 -3.375338,1.9462 -6.029428,1.6578 -8.546412,2.7615 -10.6763889,4.7145 l -2.091247,1.9257 0.146755,4.8791 c 0.751196,23.9355 1.360825,32.5187 2.403105,33.9558 2.0403389,2.8117 11.3864749,7.7305 18.4543479,9.7035 3.73236,1.0428 7.70267,0.7725 9.245525,-0.6229 1.083132,-0.9807 1.155701,-1.8867 1.155701,-15.5373 0,-8.3018 0.245742,-15.2246 0.587004,-16.1982 0.327796,-0.937 1.384421,-2.1479 2.348071,-2.6968 1.8232,-1.0415 2.0457,-1.8424 1.87112,-6.6417 -0.0826,-2.27 -0.0571,-2.2847 0.55033,-0.6971 0.975028,2.5508 -0.0391,6.958 -1.79774,7.8343 -0.77954,0.387 -1.70559,1.1888 -2.05456,1.7786 -0.382597,0.6457 -0.706586,6.0173 -0.825487,13.5381 -0.165305,10.4567 -0.06796,12.5315 0.642057,12.805 0.65604,0.2514 13.651528,-3.4801 14.381898,-4.1273 0.0889,-0.083 -0.50564,-1.4287 -1.3208,-3.0071 -2.12798,-4.1237 -3.04882,-11.3926 -2.1647,-17.0794 0.79194,-5.0947 3.2635,-10.5904 6.27389,-13.9792 l 2.09121,-2.3485 -2.38474,3.779 c -1.30562,2.0749 -2.75328,5.0753 -3.2286,6.6772 -2.14181,7.2137 -1.57965,16.3786 1.33913,21.7567 1.54637,2.8503 1.8331,3.0447 10.0343,6.952 4.64412,2.2144 8.53074,3.9264 8.64012,3.818 0.10944,-0.1125 -0.41257,-1.1111 -1.15564,-2.2213 -4.65793,-6.9679 -3.84009,-20.283 1.81607,-29.8284 4.09564,-6.9098 11.45931,-12.4017 16.65659,-12.4017 3.06118,0 2.22142,-0.9705 -1.74264,-1.9981 -2.18192,-0.5667 -4.29999,-1.2299 -4.71467,-1.4866 -0.41441,-0.2549 -1.34658,-2.2266 -2.07276,-4.3828 l -1.32077,-3.927 1.77943,-1.3941 c 1.62825,-1.2736 1.72713,-1.5379 1.08231,-2.9523 -1.43399,-3.1474 -12.23902,-6.749 -23.84754,-7.9606 -2.43527,-0.2549 -4.58099,-0.4012 -6.49393,-0.4051 z m 25.93885,7.5219 c 2.45691,-0.051 3.12721,0.1576 3.65045,0.7876 1.09782,1.324 0.23267,2.1093 -2.99009,2.7338 -1.39814,0.2696 -5.00639,0.5184 -8.01646,0.5325 -4.89491,0.036 -5.44099,-0.095 -5.26484,-1.0091 0.32971,-1.7117 3.25566,-2.6172 9.50241,-2.9354 1.27342,-0.072 2.29954,-0.094 3.11853,-0.1094 z m -46.943076,3.5945 c -4.097086,-0.055 -9.462104,1.1046 -8.273282,2.2572 0.276802,0.2679 1.306116,0.5682 2.274693,0.6788 2.74764,0.3112 7.453794,-0.1839 9.392267,-0.9917 l 1.761063,-0.7336 -1.761063,-0.7152 c -0.794887,-0.3243 -2.02799,-0.4788 -3.393678,-0.4955 z m 7.998108,13.9785 c 0.16143,0 0.86957,0.7928 1.55928,1.7602 0.68967,0.9694 1.11531,1.7604 0.9539,1.7604 -0.16145,0 -0.85125,-0.791 -1.54094,-1.7604 -0.68968,-0.9674 -1.13367,-1.7602 -0.97224,-1.7602 z m -4.769514,0.7334 c 0.688914,0.047 1.045624,0.1724 1.045624,0.4219 0,0.4398 0.456106,0.5456 1.247419,0.2941 0.917622,-0.2919 1.125468,-0.1968 0.788786,0.3479 -0.306346,0.4965 -0.222921,0.5907 0.256839,0.2934 0.42002,-0.2594 1.058756,0.017 1.540906,0.6418 1.09565,1.4475 1.06605,1.7602 -0.31185,3.1369 -0.781344,0.7815 -1.910328,1.1689 -3.375358,1.1378 -5.692207,-0.1186 -11.711613,-4.6042 -7.337703,-5.4671 2.921213,-0.5728 4.997136,-0.8481 6.145337,-0.8067 z m 59.050262,1.0463 c -1.84626,-0.043 -4.51285,0.401 -6.67729,1.2111 -4.74552,1.7744 -9.67946,6.7823 -12.30904,12.4737 -2.66142,5.7604 -3.40726,9.5068 -3.06358,15.2996 0.34037,5.7338 1.78709,9.326 5.09978,12.6395 1.31156,1.3091 2.66258,2.3848 3.00848,2.3848 0.34588,0 0.20031,-0.4219 -0.31186,-0.9369 -8.27035,-8.2698 -7.19546,-24.7399 2.29306,-35.2941 3.2228,-3.5869 8.8144,-6.6219 12.19899,-6.6219 1.37651,0 2.1443,-0.2336 1.92611,-0.5876 -0.23104,-0.3736 -1.05689,-0.5519 -2.16465,-0.5682 z m -54.665988,1.8884 c -0.14547,0.053 -0.382853,0.2576 -0.66038,0.625 -0.852636,1.1249 -3.721124,1.5088 -5.099718,0.6767 -0.695932,-0.4178 -0.685109,-0.3484 0,0.4959 1.574599,1.9418 5.906868,0.7308 5.906868,-1.6492 0,-0.1222 -0.0594,-0.1697 -0.14677,-0.1484 z m 54.537588,1.615 c -1.97637,0 -7.39992,2.4136 -8.5485,3.7957 -0.54722,0.66 -0.26524,0.7498 1.61431,0.4959 3.12865,-0.4182 5.67263,1.0057 7.22766,4.055 1.54437,3.0269 1.32707,8.31 -0.56861,13.6299 -2.83407,7.9535 -10.53792,11.8678 -15.57434,7.9063 -1.84471,-1.4515 -1.96695,-0.6686 -0.42192,2.6962 1.2724,2.7714 2.82884,4.2817 5.1365,4.9714 5.66029,1.6918 14.12533,-3.8121 17.628813,-11.4648 3.95093,-8.6304 2.67789,-19.975 -2.751773,-24.543 -1.14898,-0.9679 -2.55377,-1.5426 -3.74214,-1.5426 z m 5.88862,0.5863 c -0.31876,0 -0.0411,0.5946 0.623573,1.3213 9.85059,10.773 0.90873,36.1462 -13.152823,37.3127 -2.08202,0.1724 -2.93258,0.4458 -2.42147,0.771 0.43457,0.2751 1.97854,0.5083 3.44876,0.514 7.07862,0.046 14.456473,-7.2662 17.408803,-17.209 1.66391,-5.6027 0.96681,-14.0069 -1.48596,-18.0131 -1.27431,-2.0809 -3.73672,-4.6969 -4.420883,-4.6969 z m -13.99675,5.467 c -3.39984,0.1002 -8.0942,8.2764 -8.54852,15.3544 -0.22108,3.4455 -0.0826,4.7089 0.67878,5.8708 2.39789,3.6589 8.45104,-0.2078 10.67627,-6.8244 2.14714,-6.3829 1.11625,-13.2733 -2.14618,-14.3089 -0.21356,-0.072 -0.4337,-0.097 -0.66035,-0.094 z"
       id="path3011"
       inkscape:connector-curvature="0" />
    <text
       xml:space="preserve"
       style="font-style:normal;font-variant:normal;font-weight:normal;font-stretch:normal;font-size:21.3333px;line-height:1.25;font-family:Photonica;-inkscape-font-specification:Photonica"
       x="118.56667"
       y="1059.3276"
       id="text2254"><tspan
         sodipodi:role="line"
         id="tspan2252"
         x="118.56667"
         y="1059.3276"
         style="font-style:normal;font-variant:normal;font-weight:normal;font-stretch:normal;font-size:21.3333px;font-family:Photonica;-inkscape-font-specification:Photonica;text-align:center;text-anchor:middle">photography</tspan><tspan
         sodipodi:role="line"
         x="118.56667"
         y="1085.9943"
         id="tspan2388"
         style="font-style:normal;font-variant:normal;font-weight:normal;font-stretch:normal;font-size:21.3333px;font-family:Photonica;-inkscape-font-specification:Photonica;text-align:center;text-anchor:middle">apps</tspan></text>
  </g>
  <style
     id="style4652"
     type="text/css">
#p0,#p2,#p4,#p9,#p10,#p12,#p13,#p16{stroke:#000}
#p2,#p6,#p10,#p13{stroke-opacity:.19607843}
#p4,#p12{stroke-opacity:.39215687}
#p0,#p9{stroke-width:1}
</style>
</svg>
